{
	"asset":{
		"generator":"Khronos glTF Blender I/O v4.0.44",
		"version":"2.0"
	},
	"extensionsUsed":[
		"KHR_materials_specular",
		"KHR_materials_ior"
	],
	"scene":0,
	"scenes":[
		{
			"name":"Scene",
			"nodes":[
				0
			]
		}
	],
	"nodes":[
		{
			"mesh":0,
			"name":"Mercury",
			"scale":[
				3.825885772705078,
				3.825885772705078,
				3.825885772705078
			],
			"translation":[
				0,
				0.0066874027252197266,
				-0.02808535099029541
			]
		}
	],
	"materials":[
		{
			"doubleSided":true,
			"extensions":{
				"KHR_materials_specular":{
					"specularTexture":{
						"index":0
					}
				},
				"KHR_materials_ior":{
					"ior":1.4500000476837158
				}
			},
			"name":"Mercury",
			"normalTexture":{
				"index":1
			},
			"pbrMetallicRoughness":{
				"baseColorTexture":{
					"index":2
				},
				"metallicFactor":0,
				"roughnessFactor":0.5
			}
		}
	],
	"meshes":[
		{
			"name":"Sphere.009",
			"primitives":[
				{
					"attributes":{
						"POSITION":0,
						"NORMAL":1,
						"TEXCOORD_0":2
					},
					"indices":3,
					"material":0
				}
			]
		}
	],
	"textures":[
		{
			"sampler":0,
			"source":0
		},
		{
			"sampler":0,
			"source":1
		},
		{
			"sampler":0,
			"source":1
		}
	],
	"images":[
		{
			"mimeType":"image/png",
			"name":"2k_mercury",
			"uri":"2k_mercury.png"
		},
		{
			"mimeType":"image/jpeg",
			"name":"2k_mercury",
			"uri":"2k_mercury.jpg"
		}
	],
	"accessors":[
		{
			"bufferView":0,
			"componentType":5126,
			"count":5195,
			"max":[
				0.9962244629859924,
				0.9998325705528259,
				0.9962261915206909
			],
			"min":[
				-0.9962248206138611,
				0.031389713287353516,
				-0.9962239861488342
			],
			"type":"VEC3"
		},
		{
			"bufferView":1,
			"componentType":5126,
			"count":5195,
			"type":"VEC3"
		},
		{
			"bufferView":2,
			"componentType":5126,
			"count":5195,
			"type":"VEC2"
		},
		{
			"bufferView":3,
			"componentType":5123,
			"count":29100,
			"type":"SCALAR"
		}
	],
	"bufferViews":[
		{
			"buffer":0,
			"byteLength":62340,
			"byteOffset":0,
			"target":34962
		},
		{
			"buffer":0,
			"byteLength":62340,
			"byteOffset":62340,
			"target":34962
		},
		{
			"buffer":0,
			"byteLength":41560,
			"byteOffset":124680,
			"target":34962
		},
		{
			"buffer":0,
			"byteLength":58200,
			"byteOffset":166240,
			"target":34963
		}
	],
	"samplers":[
		{
			"magFilter":9729,
			"minFilter":9987
		}
	],
	"buffers":[
		{
			"byteLength":224440,
			"uri":"Planets_single_planet.bin"
		}
	]
}
